<?xml version="1.0" encoding="UTF-8"?>
<svg enable-background="new 0 0 24 24" version="1.1" viewBox="0 0 24 24" xml:space="preserve" xmlns="http://www.w3.org/2000/svg">
<style type="text/css">
	.st0{fill:#868E96;}
</style>
<path class="st0" d="m19 0h-14c-2.8 0-5 2.2-5 5v14c0 2.8 2.2 5 5 5h14c2.8 0 5-2.2 5-5v-14c0-2.8-2.2-5-5-5zm-4.5 19.6c-0.4 0.1-0.5-0.2-0.5-0.4v-2.2c0-0.7-0.3-1.2-0.6-1.5 1.8-0.2 3.7-0.9 3.7-3.9 0-0.9-0.3-1.6-0.8-2.1 0.1-0.2 0.4-1-0.1-2.1 0 0-0.7-0.2-2.2 0.8-0.6-0.2-1.3-0.3-2-0.3s-1.4 0.1-2 0.3c-1.5-1-2.2-0.8-2.2-0.8-0.4 1-0.2 1.8-0.1 2-0.5 0.6-0.8 1.3-0.8 2.1 0 3.1 1.9 3.8 3.6 4-0.2 0.2-0.4 0.6-0.5 1.1-0.5 0.2-1.6 0.6-2.3-0.7 0 0-0.4-0.8-1.2-0.8 0 0-0.8 0-0.1 0.5 0 0 0.5 0.2 0.9 1.2 0 0 0.5 1.4 2.7 0.9v1.5c0 0.2-0.1 0.5-0.5 0.4-3.2-1.1-5.5-4.1-5.5-7.6 0-4.4 3.6-8 8-8s8 3.6 8 8c0 3.5-2.3 6.5-5.5 7.6z"/>
</svg>
