<?xml version="1.0" encoding="UTF-8"?>
<svg enable-background="new 0 0 24 24" version="1.1" viewBox="0 0 24 24" xml:space="preserve" xmlns="http://www.w3.org/2000/svg">
<style type="text/css">
	.st0{fill:#868E96;}
</style>
<path class="st0" d="m19 0h-14c-2.8 0-5 2.2-5 5v14c0 2.8 2.2 5 5 5h14c2.8 0 5-2.2 5-5v-14c0-2.8-2.2-5-5-5zm-0.1 9.2c0.2 4.6-3.2 9.8-9.3 9.8-1.9 0-3.6-0.5-5-1.5 1.7 0.2 3.5-0.3 4.9-1.4-1.4 0-2.6-1-3.1-2.3 0.5 0.1 1 0.1 1.5-0.1-1.6-0.3-2.7-1.7-2.6-3.3 0.3 0.4 0.8 0.6 1.3 0.6-1.5-1-1.9-2.9-1-4.4 1.6 2 4 3.3 6.8 3.4-0.5-2.1 1.1-4 3.2-4 0.9 0 1.8 0.4 2.4 1 0.7-0.1 1.5-0.4 2.1-0.8-0.2 0.8-0.8 1.4-1.4 1.8 0.7-0.1 1.3-0.3 1.9-0.5-0.5 0.7-1.1 1.3-1.7 1.7z"/>
</svg>
